<svg width="25" height="25" viewBox="0 0 25 25" fill="none" xmlns="http://www.w3.org/2000/svg">
<circle cx="12.216" cy="12.6481" r="11.9938" fill="url(#paint0_linear_526_155)"/>
<path d="M11.3253 15.8916C11.0709 15.8916 10.8166 15.7826 10.6712 15.5645L8.6364 12.9483C8.3457 12.585 8.41839 12.0763 8.78175 11.7856C9.14511 11.4949 9.65381 11.5676 9.94451 11.9309L11.3253 13.7114L14.3775 9.75074C14.6682 9.38738 15.1769 9.3147 15.5403 9.60539C15.9037 9.89609 15.9763 10.4048 15.6856 10.7682L11.9793 15.5645C11.7977 15.7462 11.5796 15.8916 11.3253 15.8916Z" fill="white"/>
<circle cx="17.3181" cy="14.5279" r="0.447531" fill="white"/>
<circle cx="5.59251" cy="9.60497" r="0.716049" fill="white"/>
<circle cx="16.0649" cy="5.75607" r="0.268519" fill="white"/>
<circle cx="8.63586" cy="18.3766" r="0.358025" fill="white"/>
<circle cx="12.574" cy="9.78399" r="0.179012" fill="white"/>
<defs>
<linearGradient id="paint0_linear_526_155" x1="0.222168" y1="-0.818629" x2="27.9136" y2="3.47176" gradientUnits="userSpaceOnUse">
<stop stop-color="#53E88B"/>
<stop offset="1" stop-color="#15BE77"/>
</linearGradient>
</defs>
</svg>
